<svg width="100" height="100" viewBox="0 0 100 100" fill="none" xmlns="http://www.w3.org/2000/svg">
  <!-- Circuit Board X Logo -->
  <defs>
    <linearGradient id="gradient1" x1="0%" y1="0%" x2="100%" y2="100%">
      <stop offset="0%" stopColor="#00D4FF" />
      <stop offset="30%" stopColor="#0066FF" />
      <stop offset="70%" stopColor="#3333FF" />
      <stop offset="100%" stopColor="#FF6B35" />
    </linearGradient>
    
    <pattern id="circuitPattern" x="0" y="0" width="20" height="20" patternUnits="userSpaceOnUse">
      <path d="M2 2L6 2L6 6L10 6L10 10L14 10L14 14L18 14M2 18L6 18L6 14L10 14L10 10L14 10L14 6L18 6" 
            stroke="rgba(255,255,255,0.1)" strokeWidth="0.5" fill="none"/>
      <circle cx="6" cy="6" r="0.5" fill="rgba(255,255,255,0.2)"/>
      <circle cx="14" cy="14" r="0.5" fill="rgba(255,255,255,0.2)"/>
    </pattern>
  </defs>
  
  <!-- Main X Shape -->
  <path d="M20 15 L35 30 L20 45 L15 40 L25 30 L15 20 L20 15 Z" fill="url(#gradient1)" />
  <path d="M65 15 L80 30 L85 25 L75 15 L85 5 L80 0 L65 15 Z" fill="url(#gradient1)" />
  <path d="M15 55 L30 70 L20 80 L15 75 L25 65 L15 55 Z" fill="url(#gradient1)" />
  <path d="M55 55 L70 70 L85 55 L80 50 L70 60 L60 50 L55 55 Z" fill="url(#gradient1)" />
  
  <!-- Circuit pattern overlay -->
  <rect width="100" height="100" fill="url(#circuitPattern)" opacity="0.3"/>
  
  <!-- Connection nodes -->
  <circle cx="30" cy="30" r="1.5" fill="#00D4FF"/>
  <circle cx="70" cy="30" r="1.5" fill="#00D4FF"/>
  <circle cx="30" cy="70" r="1.5" fill="#FF6B35"/>
  <circle cx="70" cy="70" r="1.5" fill="#FF6B35"/>
</svg>